# xmcd CD database file
#
# Track frame offsets:
#	187
#	15440
#	31942
#	43655
#	56915
#	77747
#	90557
#	108525
#	123822
#	149932
#	165542
#
# Disc length: 2453 seconds
#
# Revision: 5
# Processed by: cddbd v1.5.2PL0 Copyright (c) Steve Scherf et al.
# Submitted via: CDex 1.70beta3
#
DISCID=8e09930b
DTITLE=喜納昌吉＆チャンプルーズ - 喜納昌吉＆チャンプルーズ
DYEAR=1994
DGENRE=Rock
TTITLE0=ハイサイおじさん
TTITLE1=うわき節
TTITLE2=レッドおじさん
TTITLE3=番長小
TTITLE4=東崎
TTITLE5=すくちな者
TTITLE6=いちむし小ぬユンタク
TTITLE7=馬車小引んちゃー
TTITLE8=島小ソング
TTITLE9=東京讃美歌
TTITLE10=島小ソング-シングル・ヴァージョン-
EXTD=YEAR: 1994
EXTT0=
EXTT1=
EXTT2=
EXTT3=
EXTT4=
EXTT5=
EXTT6=
EXTT7=
EXTT8=
EXTT9=
EXTT10=
PLAYORDER=
